# xmcd CD database file
#
# Track frame offsets:
#	150
#	12230
#	24720
#	37980
#	52740
#	63380
#	75725
#	89620
#	104127
#	116607
#	130585
#	146312
#	164207
#	177850
#	189475
#	206132
#	223625
#	240642
#	251540
#	268595
#	282382
#	296105
#
# Disc length: 4134 seconds
#
# Revision: 2
# Processed by: cddbd v1.5.1PL0 Copyright (c) Steve Scherf et al.
# Submitted via: CDex 1.51
#
DISCID=4b102416
DTITLE=Dolly Parton - Dolly Parton Gold (Greatest Hits)
DYEAR=2001
DGENRE=Country
TTITLE0=Jolene
TTITLE1=9 to 5
TTITLE2=Here You Come Again
TTITLE3=Everything's Beautful (In It's Own Way) with Willie Nelson
TTITLE4=Love Is Like A Butterfly
TTITLE5=D.I.V.O.R.C.E
TTITLE6=Coat Of Many Colours
TTITLE7=Harper Valley PTA
TTITLE8=In The Ghetto
TTITLE9=I Will Always Love You
TTITLE10=Heartbreaker
TTITLE11=Starting Over Again
TTITLE12=Two Doors Down
TTITLE13=Baby I'm Burnin'
TTITLE14=The Great Pretender
TTITLE15=One Of Those Days
TTITLE16=Save The Last Dance For Me
TTITLE17=Silver Threads and Golden Needles with Tammy Wynette and Loretta Lynn
TTITLE18=Down From Dover
TTITLE19=My Tennessee Mountain Home
TTITLE20=Joshua
TTITLE21=Send Me The Pillow (That You Dream On)
EXTD=YEAR: 2001
EXTT0=
EXTT1=
EXTT2=
EXTT3=
EXTT4=
EXTT5=
EXTT6=
EXTT7=
EXTT8=
EXTT9=
EXTT10=
EXTT11=
EXTT12=
EXTT13=
EXTT14=
EXTT15=
EXTT16=
EXTT17=
EXTT18=
EXTT19=
EXTT20=
EXTT21=
PLAYORDER=
